<svg width="123" height="125" viewBox="0 0 123 125" fill="none" xmlns="http://www.w3.org/2000/svg">
<path d="M1.21738 122.402C0.949623 122.232 0.547981 121.806 0.0124599 121.126C-0.612315 120.53 22.4684 116.681 22.1114 116C21.7543 115.319 32.9339 116.684 19.9607 114.107C43.9339 112.684 0.0124598 127 4.61136 122.402C6.48568 124.871 24.2197 111.096 27.6114 110.5C31.003 109.904 14.5608 117.38 18.4879 114.997C22.4151 112.699 26.3869 109.762 30.4033 106.187C34.509 102.698 38.1684 99.2077 41.3815 95.7179C44.6839 92.228 47.3615 89.0787 49.4143 86.2698C51.5564 83.4609 52.6275 81.5883 52.6275 80.652C52.6275 80.3967 52.2704 80.0136 51.5564 79.5029C50.8424 78.9071 49.9945 78.3113 49.0127 77.7155C48.1202 77.1196 47.2722 76.5664 46.469 76.0557C45.6657 75.5449 45.1748 75.1619 44.9963 74.9066C45.264 74.0554 46.1119 73.417 47.54 72.9914C48.9681 72.4807 50.5746 72.0551 52.3597 71.7147C54.1448 71.2891 55.8852 70.906 57.581 70.5656C59.3661 70.14 60.7049 69.6293 61.5974 69.0334C66.3279 62.4794 70.4335 56.6063 73.9144 51.4141C77.4846 46.1368 80.8316 40.9871 83.9555 35.9652C87.1686 30.8581 90.4263 25.6234 93.7287 20.261C97.0311 14.8985 100.824 8.85518 105.109 2.13088C106.269 0.258288 107.206 -0.380095 107.92 0.21573C108.634 0.811554 109.17 2.25856 109.527 4.55674C109.884 6.85492 110.107 9.79148 110.196 13.3664C110.285 16.8563 110.285 20.644 110.196 24.7296C110.107 28.8153 109.928 32.9861 109.66 37.242C109.482 41.4978 109.259 45.4133 108.991 48.9882C108.813 52.5632 108.634 55.67 108.456 58.3086C108.366 60.8621 108.366 62.5219 108.456 63.288C108.813 67.629 109.036 71.4167 109.125 74.6512C109.303 77.8006 109.75 80.7371 110.464 83.4609C111.178 86.0996 112.383 88.6956 114.079 91.2492C115.864 93.7176 118.541 96.4414 122.111 99.4205C119.166 100.357 116.712 100.272 114.748 99.1651C112.874 98.1437 111.312 96.569 110.062 94.4411C108.902 92.228 107.92 89.7171 107.117 86.9082C106.403 84.0142 105.689 81.2478 104.975 78.6092C104.35 75.8854 103.591 73.5447 102.699 71.587C101.895 69.5441 100.78 68.2248 99.3517 67.629C99.2624 67.629 98.9947 67.629 98.5484 67.629C98.1914 67.5439 97.7451 67.5013 97.2096 67.5013C96.7633 67.5013 96.3171 67.5439 95.8708 67.629C95.4245 67.629 95.1122 67.629 94.9336 67.629C94.1304 67.7992 92.6131 68.1397 90.3817 68.6504C88.2396 69.1611 85.8744 69.7144 83.2861 70.3102C80.6977 70.906 78.1986 71.5019 75.7888 72.0977C73.4682 72.6935 71.7723 73.1191 70.7013 73.3745C68.47 73.9703 66.1048 75.3322 63.6057 77.4601C61.1958 79.588 58.6074 82.1841 55.8406 85.2484C53.163 88.2275 50.3515 91.5045 47.4061 95.0795C44.55 98.6544 41.6046 102.144 38.57 105.549C35.5354 108.954 32.4561 112.103 29.3323 114.997C26.2084 117.891 23.0845 120.232 19.9606 122.019C16.8368 123.807 13.7129 124.786 10.589 124.956C7.37588 125.211 4.252 124.36 1.21738 122.402ZM73.7805 66.2246C73.9591 66.3097 74.4053 66.3522 75.1194 66.3522C75.9226 66.3522 76.4582 66.3097 76.7259 66.2246C78.3325 65.9692 80.3407 65.6713 82.7505 65.3308C85.1604 64.9904 87.5702 64.6073 89.9801 64.1817C92.3899 63.671 94.6213 63.1178 96.6741 62.5219C98.7269 61.841 100.155 61.1175 100.958 60.3514C100.958 60.3514 101.092 59.4577 101.36 57.6702C101.628 55.8828 101.94 53.6271 102.297 50.9034C102.654 48.0945 103.011 45.0302 103.368 41.7106C103.814 38.3059 104.216 34.9863 104.573 31.7519C104.93 28.5174 105.198 25.5383 105.376 22.8145C105.644 20.0056 105.823 17.8351 105.912 16.303C104.93 15.8774 103.636 16.9839 102.029 19.6226C100.423 22.1761 98.3253 25.7085 95.7369 30.2197C93.2378 34.731 90.1586 40.0083 86.4992 46.0516C82.929 52.0099 78.6895 58.2235 73.7805 64.6924V66.2246Z" fill="black"/>
</svg>
