<svg width="111" height="110" viewBox="0 0 111 110" fill="none" xmlns="http://www.w3.org/2000/svg">
<path d="M1.22463 108.259C0.244925 106.896 -0.146955 104.716 0.048985 101.718C0.342895 98.72 0.9797 95.3587 1.9594 91.634C3.03707 87.8185 4.35966 83.8667 5.92718 79.7786C7.4947 75.5997 9.06223 71.6479 10.6297 67.9232C12.1973 64.1077 13.6178 60.701 14.8914 57.703C16.263 54.7051 17.2427 52.5248 17.8305 51.1621C18.5163 49.7995 19.3981 47.8917 20.4757 45.4388C21.6514 42.8952 22.876 40.1698 24.1496 37.2627C25.5212 34.2648 26.9418 31.1306 28.4113 27.8602C29.8809 24.5897 31.2524 21.4555 32.526 18.4576C33.8976 15.4597 35.1222 12.7343 36.1999 10.2815C37.3756 7.82864 38.3063 5.87546 38.9921 4.42192C41.1474 3.786 42.568 3.87685 43.2538 4.69446C43.9395 5.42123 44.1355 6.69307 43.8416 8.50999C43.5477 10.3269 42.8619 12.5526 41.7842 15.1872C40.7065 17.7308 39.4329 20.5016 37.9634 23.4996C36.5918 26.4066 35.1222 29.4045 33.5547 32.4933C32.0852 35.5821 30.7136 38.5346 29.44 41.3508C28.2643 44.0762 27.3336 46.5744 26.6478 48.8456C26.06 51.1167 25.9131 52.9336 26.207 54.2963C27.9704 54.478 29.9788 54.478 32.2321 54.2963C34.5834 54.1146 36.9347 53.8421 39.286 53.4787C41.7352 53.1153 44.1355 52.7065 46.4868 52.2523C48.838 51.7981 50.8954 51.4347 52.6589 51.1621C61.5741 49.7995 68.677 47.8463 73.9674 45.3026C79.3557 42.7589 83.8133 39.5339 87.3403 35.6275C90.9651 31.6303 94.1002 26.8609 96.7454 21.3193C99.3906 15.7777 102.428 9.3276 105.857 1.96908C106.738 0.424705 107.522 -0.211217 108.208 0.061321C108.894 0.243013 109.432 0.878934 109.824 1.96908C110.314 2.96839 110.657 4.10396 110.853 5.37581C111.049 6.64765 111.049 7.55611 110.853 8.10118C110.755 8.37372 110.461 8.96422 109.971 9.87268C109.481 10.7811 108.943 11.7804 108.355 12.8706C107.767 13.8699 107.228 14.8238 106.738 15.7322C106.248 16.5499 105.955 17.0949 105.857 17.3675C105.661 17.7308 105.416 18.3668 105.122 19.2752C104.828 20.0928 104.485 21.0013 104.093 22.0006C103.701 22.9999 103.358 23.9538 103.064 24.8622C102.771 25.6799 102.575 26.2704 102.477 26.6337C102.966 26.7246 102.281 24.0446 103.064 24.8622C102.966 24.408 103.946 25.589 103.064 24.8622C103.358 26.4066 102.477 33 94.5 43.5C97 37.1275 100 34 96.7454 41C94.786 43.0895 95.1779 45.2117 93.2185 47.2103C91.357 49.209 90.0834 51.0713 89.3976 52.7974C85.3809 61.882 81.9029 70.9665 78.9638 80.0511C76.1227 89.1357 74.0163 98.5383 72.6448 108.259C72.3508 108.713 71.91 109.167 71.3222 109.621C70.7343 110.076 70.0975 110.121 69.4117 109.758C69.2158 107.759 69.3628 105.034 69.8526 101.582C70.4404 98.0386 71.1752 94.2231 72.0569 90.135C72.9387 85.9561 73.9184 81.7318 74.996 77.462C76.0737 73.1923 77.0534 69.2859 77.9351 65.7429C78.9148 62.1091 79.6986 59.1112 80.2864 56.7492C80.8742 54.3872 81.1192 53.0699 81.0212 52.7974C78.9638 52.434 76.3186 52.3886 73.0856 52.6611C69.8526 52.8428 66.3257 53.2516 62.5049 53.8875C58.684 54.4326 54.7162 55.1139 50.6015 55.9315C46.4868 56.7492 42.47 57.6576 38.5512 58.6569C34.7304 59.5654 31.1545 60.4738 27.8235 61.3823C24.4925 62.1999 21.7493 62.9267 19.594 63.5626C17.9285 67.0147 16.5569 70.8303 15.4793 75.0092C14.4016 79.0973 13.2749 83.2307 12.0993 87.4097C11.0216 91.5886 9.797 95.6312 8.42542 99.5376C7.05384 103.353 5.2414 106.76 2.98809 109.758C2.79215 109.667 2.44925 109.44 1.9594 109.076C1.56752 108.713 1.3226 108.44 1.22463 108.259Z" fill="black"/>
</svg>
