<svg width="86" height="98" viewBox="0 0 86 98" fill="none" xmlns="http://www.w3.org/2000/svg">
<path d="M1.7237 96.0762C0.359104 95.1209 -0.195263 93.6881 0.0605988 91.7776C0.31646 89.8671 0.913471 87.9132 1.85163 85.9159C2.78979 83.658 4.15438 81.1831 5.94542 78.491C8.67461 73.1938 11.1053 68.461 13.2375 64.2927C15.4549 60.0375 17.5018 56.0429 19.3781 52.3088C21.2545 48.5746 23.0455 44.9708 24.7512 41.4972C26.457 38.0236 28.1627 34.3763 29.8685 30.5553C31.6595 26.7343 33.4932 22.6529 35.3695 18.3109C37.2458 13.9688 39.3354 9.01896 41.6381 3.4612C41.8087 3.11384 42.0645 2.63622 42.4057 2.02834C42.8321 1.33362 43.3012 0.812575 43.8129 0.465215C44.4099 0.0310143 45.007 -0.0992458 45.604 0.0744344C46.201 0.161274 46.798 0.769155 47.395 1.89808C48.2479 3.63488 48.2905 6.02298 47.5229 9.06238C46.8406 12.1018 45.604 15.6188 43.8129 19.6135C42.0219 23.5213 39.8897 27.7764 37.4164 32.3789C34.9431 36.8946 32.3418 41.4972 29.6126 46.1865C26.8834 50.8759 24.1969 55.5218 21.553 60.1244C18.9091 64.7269 16.5637 69.0255 14.5168 73.0201C12.5552 77.0148 11.02 80.662 9.91127 83.962C8.88782 87.175 8.54668 89.7368 8.88782 91.6473C14.9432 92.2552 21.0413 92.2118 27.1819 91.5171C33.3226 90.8223 39.4633 89.9973 45.604 89.0421C51.7446 88 57.8853 87.0882 64.026 86.3066C70.252 85.5251 76.4353 85.3514 82.576 85.7856C83.6847 85.6119 84.6229 86.0027 85.3904 86.9579C86.158 87.9132 86.2007 88.9553 85.5184 90.0842C85.3478 90.0842 84.964 90.0842 84.367 90.0842C83.8553 89.9973 83.3009 89.9539 82.7039 89.9539C82.1069 89.9539 81.5099 89.9973 80.9129 90.0842C80.4011 90.0842 80.0174 90.0842 79.7615 90.0842C74.9854 90.5184 69.3991 91.2999 63.0026 92.4289C56.606 93.471 49.9963 94.4696 43.1733 95.4249C36.3503 96.3801 29.5273 97.1182 22.7044 97.6393C15.9667 98.1603 9.86863 98.1169 4.41025 97.509C4.32496 97.509 3.89852 97.3353 3.13094 96.988C2.44864 96.5538 1.97956 96.2498 1.7237 96.0762Z" fill="black"/>
</svg>
