<svg width="71" height="98" viewBox="0 0 71 98" fill="none" xmlns="http://www.w3.org/2000/svg">
<path d="M9.78234 96.5882C5.61204 94.6666 2.85964 92.013 1.52514 88.6273C0.190642 85.1501 -0.268091 81.4442 0.148939 77.5095C0.56597 73.4833 1.56684 69.4571 3.15156 65.4309C4.81968 61.4047 6.5295 57.836 8.28103 54.7248C8.86487 53.6268 9.94915 51.7509 11.5339 49.0973C13.1186 46.4437 14.7867 43.6528 16.5382 40.7246C18.3732 37.705 20.083 34.9141 21.6677 32.352C23.3358 29.6983 24.5035 27.8682 25.1708 26.8617C26.1716 19.8158 28.1734 14.2341 31.176 10.1163C34.1786 5.90713 37.5566 3.02474 41.3098 1.46916C45.1465 -0.086421 49.0666 -0.406687 53.0701 0.508359C57.0736 1.3319 60.5766 3.29925 63.5792 6.41041C66.5819 9.43006 68.7504 13.502 70.0849 18.6263C71.4194 23.7505 71.2943 29.7441 69.7096 36.6069C68.2083 43.4698 64.9554 51.1562 59.9511 59.6661C54.9467 68.176 47.607 77.3722 37.9319 87.2547C36.2638 88.9933 34.262 90.6862 31.9266 92.3332C29.6747 93.8888 27.2559 95.1699 24.6703 96.1764C22.1681 97.183 19.6243 97.7778 17.0387 97.9608C14.4531 98.1438 12.0343 97.6863 9.78234 96.5882ZM5.40352 85.7449C6.23758 89.8626 7.8223 92.4247 10.1577 93.4313C12.493 94.4379 15.2454 94.2548 18.4149 92.8823C21.5843 91.5097 25.0456 89.1763 28.7989 85.8822C32.5522 82.588 36.3055 78.7448 40.0587 74.3526C43.812 69.8689 47.3985 65.0191 50.8181 59.8034C54.2378 54.5876 57.1987 49.4176 59.7009 44.2933C62.2864 39.1691 64.2465 34.2736 65.581 29.6068C66.9155 24.9401 67.3325 20.9139 66.8321 17.5282C66.415 14.051 64.9137 11.4432 62.3282 9.70457C59.826 7.96599 55.9476 7.46271 50.693 8.19475C48.7747 10.0248 46.2308 12.7242 43.0614 16.2929C39.8919 19.7701 36.514 23.7505 32.9275 28.2343C29.3411 32.718 25.7546 37.5677 22.1681 42.7835C18.5817 47.9078 15.4122 53.032 12.6598 58.1563C9.90745 63.2805 7.8223 68.2218 6.40439 72.98C4.98649 77.7383 4.65287 81.9932 5.40352 85.7449Z" fill="black"/>
</svg>
